<?xml version="1.0" encoding="UTF-8" standalone="no"?>
<svg
   viewBox="0 0 360 360"
   fill="none"
   version="1.1"
   id="svg2"
   sodipodi:docname="bluesky.svg"
   width="30"
   height="30"
   preserveAspectRatio="none"
   inkscape:export-filename="bluesky.svg"
   inkscape:export-xdpi="96"
   inkscape:export-ydpi="96"
   inkscape:version="1.3.2 (091e20ef0f, 2023-11-25, custom)"
   xmlns:inkscape="http://www.inkscape.org/namespaces/inkscape"
   xmlns:sodipodi="http://sodipodi.sourceforge.net/DTD/sodipodi-0.dtd"
   xmlns="http://www.w3.org/2000/svg"
   xmlns:svg="http://www.w3.org/2000/svg">
  <defs
     id="defs2" />
  <sodipodi:namedview
     id="namedview2"
     pagecolor="#ffffff"
     bordercolor="#000000"
     borderopacity="0.25"
     inkscape:showpageshadow="2"
     inkscape:pageopacity="0.0"
     inkscape:pagecheckerboard="0"
     inkscape:deskcolor="#d1d1d1"
     inkscape:zoom="2.64375"
     inkscape:cx="180.04728"
     inkscape:cy="114.60993"
     inkscape:window-width="1920"
     inkscape:window-height="1050"
     inkscape:window-x="0"
     inkscape:window-y="0"
     inkscape:window-maximized="1"
     inkscape:current-layer="svg2" />
  <path
     d="m 254.896,184.158 c -2.086,-0.232 -4.163,-0.513 -6.225,-0.843 2.102,0.259 4.178,0.54 6.225,0.843 z"
     fill="#ffffff"
     id="path1" />
  <path
     d="M 180,161.96389 C 163.699,130.26189 119.308,71.181594 78.0347,42.043894 38.4971,14.131554 23.414,18.967824 13.526,23.435834 2.08093,28.607444 0,46.178394 0,56.516294 c 0,10.3378 5.66748,84.755596 9.36416,97.177596 12.21444,41.044 55.69614,54.913 95.73984,50.462 2.047,-0.304 4.123,-0.584 6.225,-0.844 -2.062,0.33 -4.139,0.612 -6.225,0.844 -58.6836,8.691 -110.80021,30.077 -42.4458,106.174 75.1898,77.85 103.0468,-16.693 117.3418,-64.628 14.295,47.935 30.76,139.069 115.995,64.628 64.005,-64.628 17.585,-97.48 -41.099,-106.172 -2.086,-0.232 -4.163,-0.513 -6.225,-0.843 2.102,0.259 4.178,0.54 6.225,0.843 40.044,4.452 83.525,-9.418 95.74,-50.461 3.697,-12.422 9.364,-86.840196 9.364,-97.177996 0,-10.3379 -2.081,-27.90888 -13.526,-33.08049 -9.888,-4.468 -24.971,-9.30427 -64.509,18.60809 C 240.692,71.184194 196.301,130.26189 180,161.96389 Z"
     fill="#000000"
     id="path2" />
</svg>
