<?xml version="1.0" encoding="UTF-8" standalone="no"?>
<svg width="30" height="30" viewBox="0 0 367 367" fill="none" version="1.1" id="svg2"
   xmlns="http://www.w3.org/2000/svg"
   xmlns:svg="http://www.w3.org/2000/svg">
   <defs id="defs2" />
   <path fill-rule="evenodd" clip-rule="evenodd" d="m 160.2065,338.96831 c -2.83724,-2.48056 -4.50554,-6.03116 -4.63524,-9.79253 -0.1297,-3.77758 1.31324,-7.42546 3.98835,-10.08436 18.46638,-18.4988 57.29441,-57.32846 57.29441,-57.32846 5.12324,-5.13945 12.08016,-8.00912 19.34349,-8.00912 8.09019,0 14.88173,3.12907 20.00497,8.25232 5.12325,5.12324 8.00912,12.51628 8.00912,19.7634 0,7.24712 -2.88587,14.20241 -8.00912,19.34187 4.71793,-4.73414 11.82075,-8.00913 19.34349,-8.00913 7.50653,0 14.44398,2.69133 20.06983,8.33338 5.78796,5.77176 7.94427,13.13237 7.94427,19.68234 0,7.24712 -2.88588,14.20241 -8.00913,19.32566 l -1.4251,1.42672 c -29.37759,29.28032 -91.02027,35.05207 -133.91934,-2.90209 z" fill="#000000" id="path1" style="stroke-width:1.62128" />
   <path fill-rule="evenodd" clip-rule="evenodd" d="m 120.40732,307.77489 -15.56428,-15.5805 c -54.053475,-54.05347 -54.053475,-141.68365 0,-195.737122 L 196.04003,5.2594652 c 5.22052,-5.22052121 13.68198,-5.22052121 18.9025,0 l 17.26825,17.2664688 c 53.11313,53.11248 53.11313,139.236486 0,192.349616 l -92.90096,92.89934 c -5.22052,5.22052 -13.68198,5.22052 -18.9025,0 z m 44.63222,-157.23173 c 15.41837,15.41838 40.4185,15.41838 55.83687,0 15.41838,-15.41837 15.41838,-40.42012 0,-55.838495 -15.41837,-15.418372 -40.4185,-15.418372 -55.83687,0 -15.41838,15.418375 -15.41838,40.420125 0,55.838495 z" fill="#000000" id="path2" style="stroke-width:1.62128" />
</svg>
