<?xml version="1.0" encoding="UTF-8" standalone="no"?>
<svg viewBox="-200 0 1796 1796" version="1.1" id="svg1" sodipodi:docname="liberapay.svg" inkscape:export-filename="liberapay.svg" inkscape:export-xdpi="96" inkscape:export-ydpi="96" inkscape:version="1.3.2 (091e20ef0f, 2023-11-25, custom)" width="1796" height="1796"
   xmlns:inkscape="http://www.inkscape.org/namespaces/inkscape"
   xmlns:sodipodi="http://sodipodi.sourceforge.net/DTD/sodipodi-0.dtd"
   xmlns="http://www.w3.org/2000/svg"
   xmlns:svg="http://www.w3.org/2000/svg">
   <defs id="defs1" />
   <sodipodi:namedview id="namedview1" pagecolor="#ffffff" bordercolor="#000000" borderopacity="0.25" inkscape:showpageshadow="2" inkscape:pageopacity="0.0" inkscape:pagecheckerboard="0" inkscape:deskcolor="#d1d1d1" inkscape:zoom="0.47104677" inkscape:cx="768.50118" inkscape:cy="898" inkscape:window-width="1920" inkscape:window-height="1050" inkscape:window-x="0" inkscape:window-y="0" inkscape:window-maximized="1" inkscape:current-layer="svg1" />
   <path d="M 550.57652,10.416201 264.26487,54.75379 29.706986,1035.5107 c -13.592281,57.8942 -20.6247648,112.3997 -21.2372906,163.4843 -0.6367956,51.1101 9.8258286,96.3883 31.3740046,135.7899 21.5528,39.4281 57.25724,70.4947 107.14223,93.2701 49.88382,22.7745 118.5063,34.1524 205.95641,34.1524 l 55.43471,-227.195 c -32.03045,-2.4477 -57.00068,-7.9996 -74.85407,-16.6444 -17.85223,-8.5973 -30.43786,-19.9706 -37.83327,-34.151 -7.39651,-14.1541 -10.82665,-30.4645 -10.1887,-48.9282 0.61252,-18.4659 3.37581,-38.8225 8.32339,-60.9867 L 550.57652,10.513289 Z M 992.24076,450.26252 c -73.88441,0 -142.55428,5.82244 -205.95759,17.5032 -63.42757,11.73044 -119.80763,24.98178 -169.0304,39.74943 L 310.65961,1785.5838 H 584.01 l 83.13008,-334.2827 c 41.8505,7.3965 83.72295,11.0958 125.6012,11.0958 86.17652,0 165.92733,-15.149 239.19802,-45.2945 73.2477,-30.1708 135.9979,-72.3161 188.3574,-126.5108 52.1848,-54.1692 93.1731,-118.4749 122.7315,-192.9962 29.5584,-74.4461 44.3387,-156.714 44.3387,-246.61192 h 0.1908 c 0,-55.4185 -7.7005,-107.36296 -23.0542,-156.02289 -15.4286,-48.63451 -39.1173,-91.12528 -71.1234,-127.46766 -32.1309,-36.31697 -73.0396,-64.96467 -122.9256,-85.90379 -49.8573,-20.91254 -109.277,-31.37747 -178.21605,-31.37747 z m -35.01102,230.82957 c 57.86736,0 98.50676,18.5052 121.91786,55.4347 23.3638,36.92832 35.0608,81.91081 35.0608,134.83067 0,54.19463 -7.6774,103.71903 -23.054,148.65754 -15.4287,44.986 -36.97,83.456 -64.6666,115.4632 -27.72196,32.0317 -61.28021,56.9776 -100.68292,74.8068 -39.40271,17.8766 -83.12662,26.7836 -131.14976,26.7836 -30.78342,0 -56.62044,-2.4259 -77.53298,-7.3676 L 846.40658,692.18688 c 34.45397,-7.39652 71.39503,-11.09596 110.82316,-11.09596 z" id="path1" style="stroke-width:1.1557" />
</svg>
