<?xml version="1.0" encoding="UTF-8" standalone="no"?>
<svg viewBox="0 0 24 24" fill="currentColor" version="1.1" id="svg1" sodipodi:docname="matrix.svg" inkscape:export-filename="matrix.svg" inkscape:export-xdpi="96" inkscape:export-ydpi="96" inkscape:version="1.3.2 (091e20ef0f, 2023-11-25, custom)"
   xmlns:inkscape="http://www.inkscape.org/namespaces/inkscape"
   xmlns:sodipodi="http://sodipodi.sourceforge.net/DTD/sodipodi-0.dtd"
   xmlns="http://www.w3.org/2000/svg"
   xmlns:svg="http://www.w3.org/2000/svg">
   <defs id="defs1" />
   <sodipodi:namedview id="namedview1" pagecolor="#ffffff" bordercolor="#000000" borderopacity="0.25" inkscape:showpageshadow="2" inkscape:pageopacity="0.0" inkscape:pagecheckerboard="0" inkscape:deskcolor="#d1d1d1" inkscape:zoom="35.25" inkscape:cx="12" inkscape:cy="12" inkscape:window-width="1920" inkscape:window-height="1050" inkscape:window-x="0" inkscape:window-y="0" inkscape:window-maximized="1" inkscape:current-layer="svg1" />
   <path d="M 0.0383422,1.3674153 V 22.632585 H 4.0255615 V 19.974439 H 2.6964884 V 4.0255615 H 4.0255615 V 1.3674153 Z m 19.9360968,0 v 2.6581462 h 1.329073 V 19.974439 h -1.329073 v 2.658146 h 3.987219 V 1.3674153 Z M 15.657547,7.2470062 C 14.994726,7.2336272 14.325317,7.397856 13.788538,7.7661753 13.442979,8.0040794 13.146284,8.308375 12.804713,8.5994418 12.285045,7.5667522 11.346325,7.2915717 10.273763,7.2729647 9.1865807,7.2556867 8.3445713,7.7476514 7.5896578,8.6487629 V 7.5351451 H 5.3546346 v 8.4364989 h 2.375199 c 0,0 -0.00405,-3.162778 0.0026,-4.724439 0.00133,-0.277776 0.015534,-0.560806 0.072684,-0.833266 0.1754376,-0.8346582 0.8910811,-1.3488646 1.7470041,-1.2797528 0.8147213,0.066454 1.1853673,0.5095958 1.2252383,1.4718448 0.0066,0.167463 0.01038,5.360422 0.01038,5.360422 h 2.40635 c -2e-6,0 -0.0094,-3.284783 0.0052,-4.68031 0.004,-0.360179 0.03948,-0.729059 0.127196,-1.077276 0.196703,-0.7814953 0.831252,-1.1638533 1.692491,-1.0694892 0.76023,0.082403 1.140865,0.5023893 1.196686,1.3290732 v 5.518768 h 2.395965 c 0,0 0.03854,-4.146126 0,-6.115812 C 18.603645,9.4686979 18.474413,9.0376208 18.29233,8.6721257 17.850414,7.7858 16.762248,7.2693046 15.657547,7.2470062 Z" id="path1" style="stroke-width:1.32907" />
</svg>
