<?xml version="1.0" standalone="no"?>
<svg viewBox="0 0 32 32" fill="none" xmlns="http://www.w3.org/2000/svg">
<path d="M5.96715 11.78C5.65208 12.3844 5.15696 12.8795 4.5461 13.1946L12.3458 21.0265L14.2234 20.0748L5.96715 11.78ZM16.2553 22.1067L14.3778 23.0584L18.3323 27.0258C18.6474 26.4214 19.1425 25.9262 19.7533 25.6112L16.2553 22.1067Z" fill="black"/>
<path d="M25.2832 14.8793L20.8657 17.117L21.1937 19.2003L26.1899 16.6669C25.7076 16.1782 25.3925 15.5544 25.2832 14.8793ZM18.3001 18.4159L7.8576 23.7078C8.33986 24.1965 8.65494 24.8202 8.76425 25.4954L18.628 20.4992L18.3001 18.4159Z" fill="black"/>
<path d="M14.9436 5.382L9.90238 15.2201L11.3877 16.7119L16.7247 6.29508C16.056 6.17934 15.4323 5.85783 14.9436 5.382ZM8.59707 17.7728L6.04431 22.7562C6.71947 22.8719 7.3432 23.187 7.82545 23.6693L10.0824 19.2646L8.59707 17.7728Z" fill="black"/>
<path d="M4.50108 13.2139C3.98667 13.4711 3.41439 13.5933 2.84211 13.5611C2.7328 13.5547 2.62992 13.5418 2.52061 13.529L4.0124 23.0584C4.5268 22.8012 5.09909 22.679 5.67137 22.7112C5.78068 22.7176 5.88356 22.7305 5.99287 22.7433L4.50108 13.2139Z" fill="black"/>
<path d="M8.77712 25.5404C8.80927 25.759 8.82213 25.9841 8.80927 26.2092C8.78355 26.6657 8.66138 27.1094 8.45561 27.5209L17.985 29.0513C17.9529 28.8326 17.94 28.6076 17.9529 28.3825C17.9786 27.926 18.1008 27.4823 18.3065 27.0708L8.77712 25.5404Z" fill="black"/>
<path d="M26.222 16.699L21.8238 25.2896C22.499 25.4054 23.1227 25.7205 23.605 26.2027L28.0032 17.6121C27.3344 17.5028 26.7107 17.1813 26.222 16.699Z" fill="black"/>
<path d="M20.2227 4.55252C19.9076 5.15695 19.4125 5.65207 18.8017 5.96715L25.6112 12.8088C25.9262 12.2044 26.4214 11.7092 27.0322 11.3942L20.2227 4.55252Z" fill="black"/>
<path d="M14.0048 3.55585L5.39487 7.9219C5.87713 8.41059 6.19221 9.03431 6.30152 9.70947L14.9114 5.34342C14.4292 4.85473 14.1141 4.23101 14.0048 3.55585Z" fill="black"/>
<path d="M18.7888 5.98C18.268 6.24363 17.6893 6.37223 17.1041 6.34008C17.0077 6.33365 16.9112 6.32079 16.8148 6.30793L17.58 11.1948L19.6633 11.5292L18.7888 5.98ZM18.0172 14.0305L19.8241 25.579C20.332 25.3282 20.8979 25.2125 21.4573 25.2446C21.5731 25.2511 21.6888 25.2639 21.8045 25.2832L20.0941 14.3649L18.0172 14.0305Z" fill="black"/>
<path d="M6.30795 9.74805C6.34653 9.9731 6.35296 10.1982 6.34653 10.4296C6.32081 10.8797 6.20507 11.3234 5.99931 11.7285L10.8862 12.513L11.8443 10.6354L6.30795 9.74805ZM14.6864 11.0919L13.7283 12.9695L25.2768 14.8278C25.2447 14.6092 25.2318 14.3842 25.2447 14.1655C25.2704 13.709 25.3925 13.2589 25.5983 12.8474L14.6864 11.0919Z" fill="black"/>
<path d="M17.2777 6.04431C18.9468 6.04431 20.2999 4.69125 20.2999 3.02216C20.2999 1.35307 18.9468 0 17.2777 0C15.6086 0 14.2556 1.35307 14.2556 3.02216C14.2556 4.69125 15.6086 6.04431 17.2777 6.04431Z" fill="black"/>
<path d="M28.5561 17.3613C30.2252 17.3613 31.5783 16.0082 31.5783 14.3392C31.5783 12.6701 30.2252 11.317 28.5561 11.317C26.8871 11.317 25.534 12.6701 25.534 14.3392C25.534 16.0082 26.8871 17.3613 28.5561 17.3613Z" fill="black"/>
<path d="M21.2708 31.5847C22.9399 31.5847 24.293 30.2317 24.293 28.5626C24.293 26.8935 22.9399 25.5404 21.2708 25.5404C19.6018 25.5404 18.2487 26.8935 18.2487 28.5626C18.2487 30.2317 19.6018 31.5847 21.2708 31.5847Z" fill="black"/>
<path d="M5.49133 29.0513C7.16042 29.0513 8.51348 27.6982 8.51348 26.0291C8.51348 24.36 7.16042 23.007 5.49133 23.007C3.82223 23.007 2.46917 24.36 2.46917 26.0291C2.46917 27.6982 3.82223 29.0513 5.49133 29.0513Z" fill="black"/>
<path d="M3.02216 13.2653C4.69125 13.2653 6.04431 11.9123 6.04431 10.2432C6.04431 8.57409 4.69125 7.22102 3.02216 7.22102C1.35307 7.22102 0 8.57409 0 10.2432C0 11.9123 1.35307 13.2653 3.02216 13.2653Z" fill="black"/>
</svg>
