<?xml version="1.0" encoding="UTF-8" standalone="no"?>
<svg
   viewBox="0 0 24 24"
   version="1.1"
   id="svg3"
   sodipodi:docname="instagram.svg"
   inkscape:export-filename="instagram.svg"
   inkscape:export-xdpi="96"
   inkscape:export-ydpi="96"
   inkscape:version="1.3.2 (091e20ef0f, 2023-11-25, custom)"
   xmlns:inkscape="http://www.inkscape.org/namespaces/inkscape"
   xmlns:sodipodi="http://sodipodi.sourceforge.net/DTD/sodipodi-0.dtd"
   xmlns="http://www.w3.org/2000/svg"
   xmlns:svg="http://www.w3.org/2000/svg">
  <defs
     id="defs3" />
  <path
     fill-rule="evenodd"
     clip-rule="evenodd"
     d="m 12,18.478663 c 3.578058,0 6.478663,-2.900605 6.478663,-6.478663 0,-3.5780684 -2.900605,-6.478663 -6.478663,-6.478663 -3.5780684,0 -6.478663,2.9005946 -6.478663,6.478663 0,3.578058 2.9005946,6.478663 6.478663,6.478663 z m 0,-2.159554 c 2.385336,0 4.319109,-1.933773 4.319109,-4.319109 0,-2.3853789 -1.933773,-4.3191086 -4.319109,-4.3191086 -2.3853789,0 -4.3191086,1.9337297 -4.3191086,4.3191086 0,2.385336 1.9337297,4.319109 4.3191086,4.319109 z"
     id="path1"
     style="stroke-width:1.07978" />
  <path
     d="m 18.478663,4.4415599 c -0.596361,0 -1.079777,0.4834378 -1.079777,1.0797771 0,0.5963394 0.483416,1.0797772 1.079777,1.0797772 0.596361,0 1.079777,-0.4834378 1.079777,-1.0797772 0,-0.5963393 -0.483416,-1.0797771 -1.079777,-1.0797771 z"
     id="path2"
     style="stroke-width:1.07978" />
  <path
     fill-rule="evenodd"
     clip-rule="evenodd"
     d="M 0.82858231,3.659866 C 0.12245124,5.0457276 0.12245124,6.859926 0.12245124,10.488312 v 3.023376 c 0,3.628375 0,5.442617 0.70613107,6.828403 0.62113099,1.219068 1.61223689,2.210196 2.83128369,2.831283 1.3858616,0.706175 3.20006,0.706175 6.828446,0.706175 h 3.023376 c 3.628375,0 5.442617,0 6.828403,-0.706175 1.219068,-0.621087 2.210196,-1.612215 2.831283,-2.831283 0.706175,-1.385786 0.706175,-3.200028 0.706175,-6.828403 v -3.023376 c 0,-3.628386 0,-5.4425844 -0.706175,-6.828446 C 22.550287,2.4408192 21.559159,1.4497133 20.340091,0.82858231 18.954305,0.12245124 17.140063,0.12245124 13.511688,0.12245124 h -3.023376 c -3.628386,0 -5.4425844,0 -6.828446,0.70613107 C 2.4408192,1.4497133 1.4497133,2.4408192 0.82858231,3.659866 Z M 13.511688,2.2820056 h -3.023376 c -1.8498311,0 -3.1073287,0.00168 -4.0793118,0.081091 C 5.4622084,2.4404521 4.9780364,2.5806611 4.6402821,2.752756 3.8275878,3.1668506 3.1668506,3.8275878 2.752756,4.6402821 2.5806611,4.9780364 2.4404521,5.4622084 2.3630968,6.4090002 2.28369,7.3809833 2.2820056,8.6384809 2.2820056,10.488312 v 3.023376 c 0,1.849874 0.00168,3.107275 0.081091,4.07929 0.077355,0.946857 0.2175643,1.431029 0.3896592,1.768783 0.4140946,0.81264 1.0748318,1.473356 1.8875261,1.887451 0.3377543,0.172116 0.8219263,0.312379 1.7687181,0.389691 0.9719831,0.07936 2.2294807,0.08109 4.079312,0.08109 h 3.023376 c 1.849874,0 3.107275,-0.0017 4.07929,-0.08109 0.946857,-0.07731 1.431029,-0.217575 1.768783,-0.389691 0.81264,-0.414095 1.473356,-1.074811 1.887451,-1.887451 0.172116,-0.337754 0.312379,-0.821926 0.389691,-1.768783 0.07936,-0.972015 0.08109,-2.229416 0.08109,-4.07929 v -3.023376 c 0,-1.8498311 -0.0017,-3.1073287 -0.08109,-4.0793118 C 21.559591,5.4622084 21.419328,4.9780364 21.247212,4.6402821 20.833117,3.8275878 20.172401,3.1668506 19.359761,2.752756 19.022007,2.5806611 18.537835,2.4404521 17.590978,2.3630968 16.618963,2.28369 15.361562,2.2820056 13.511688,2.2820056 Z"
     id="path3"
     style="stroke-width:1.07978" />
</svg>
