<svg xmlns="http://www.w3.org/2000/svg" xmlns:xlink="http://www.w3.org/1999/xlink" viewBox="25 25 206 206"><g fill="#000000" fill-rule="nonzero" stroke="none" stroke-width="1" stroke-linecap="butt" stroke-linejoin="miter" stroke-miterlimit="10" stroke-dasharray="" stroke-dashoffset="0" font-family="none" font-weight="none" font-size="none" text-anchor="none" style="mix-blend-mode: normal"><g transform="scale(5.33333,5.33333)"><path d="M33,29.996h-3v-7.824c-0.076,-1.169 -0.863,-1.747 -1.893,-1.865c-1.169,-0.134 -2.165,0.409 -2.431,1.514c-0.119,0.493 -0.17,1.014 -0.175,1.523v6.652h-3c0,0 0.009,-7.376 0,-7.613c-0.054,-1.362 -0.701,-1.99 -1.807,-2.083c-1.161,-0.097 -2.36,0.633 -2.596,1.813c-0.077,0.383 -0.093,0.784 -0.094,1.177c-0.01,2.211 -0.004,6.706 -0.004,6.706h-3v-11.957h3.002v1.576c1.023,-1.275 2.195,-1.973 3.669,-1.947c1.454,0.026 2.728,0.415 3.433,1.876c0.463,-0.412 0.865,-0.841 1.333,-1.176c1.941,-1.389 5.149,-0.726 6.108,1.281c0.247,0.518 0.444,1.127 0.455,1.698z"></path><path d="M10,41h-4v-34h4v2h-2v30h2z"></path><path d="M42,41h-4v-2h2v-30h-2v-2h4z"></path></g></g></svg>
